<svg width="29" height="33" viewBox="0 0 29 33" fill="none" xmlns="http://www.w3.org/2000/svg">
<path d="M7.007 28.893C6.88967 28.9737 6.71367 29.0727 6.479 29.19C6.25167 29.3 5.98033 29.3954 5.665 29.476C5.357 29.5567 5.016 29.5934 4.642 29.586C4.01867 29.5787 3.45767 29.4687 2.959 29.256C2.46767 29.0434 2.04967 28.7537 1.705 28.387C1.36033 28.013 1.09267 27.5877 0.902 27.111C0.718667 26.627 0.627 26.1137 0.627 25.571C0.627 24.9697 0.722333 24.4197 0.913 23.921C1.10367 23.415 1.375 22.975 1.727 22.601C2.08633 22.227 2.50433 21.9374 2.981 21.732C3.465 21.5267 3.993 21.424 4.565 21.424C5.05633 21.424 5.5 21.49 5.896 21.622C6.292 21.754 6.62567 21.908 6.897 22.084L6.435 23.184C6.22233 23.0374 5.95833 22.898 5.643 22.766C5.335 22.6267 4.99033 22.557 4.609 22.557C4.235 22.557 3.87933 22.634 3.542 22.788C3.212 22.9347 2.91867 23.1437 2.662 23.415C2.41267 23.679 2.21467 23.9907 2.068 24.35C1.92133 24.702 1.848 25.087 1.848 25.505C1.848 25.9304 1.914 26.3227 2.046 26.682C2.178 27.0414 2.365 27.353 2.607 27.617C2.85633 27.881 3.15333 28.0864 3.498 28.233C3.84267 28.3797 4.23133 28.453 4.664 28.453C5.07467 28.453 5.434 28.3907 5.742 28.266C6.05733 28.1414 6.314 27.9984 6.512 27.837L7.007 28.893ZM8.51744 29.498V20.951H9.61744V25.934L9.60644 25.747C9.76044 25.4464 9.9951 25.197 10.3104 24.999C10.6258 24.801 11.0034 24.702 11.4434 24.702C11.8761 24.702 12.2318 24.8304 12.5104 25.087C12.7964 25.3437 12.9431 25.6774 12.9504 26.088V29.498H11.8174V26.484C11.8101 26.2494 11.7404 26.0587 11.6084 25.912C11.4764 25.758 11.2711 25.6774 10.9924 25.67C10.7431 25.67 10.5158 25.747 10.3104 25.901C10.1051 26.0477 9.94377 26.253 9.82644 26.517C9.7091 26.7737 9.65044 27.067 9.65044 27.397V29.498H8.51744ZM16.6085 29.608C16.1758 29.608 15.7835 29.52 15.4315 29.344C15.0795 29.1607 14.8008 28.8894 14.5955 28.53C14.3901 28.1707 14.2875 27.727 14.2875 27.199C14.2875 26.6784 14.3938 26.231 14.6065 25.857C14.8265 25.483 15.1125 25.197 15.4645 24.999C15.8238 24.7937 16.2125 24.691 16.6305 24.691C17.0705 24.691 17.4298 24.7864 17.7085 24.977C17.9945 25.1604 18.2181 25.3767 18.3795 25.626L18.3025 25.802L18.4125 24.889H19.4575V29.498H18.3245V28.343L18.4455 28.618C18.4161 28.6767 18.3538 28.761 18.2585 28.871C18.1631 28.9737 18.0348 29.0837 17.8735 29.201C17.7195 29.3184 17.5361 29.4174 17.3235 29.498C17.1181 29.5714 16.8798 29.608 16.6085 29.608ZM16.9165 28.684C17.1585 28.684 17.3748 28.64 17.5655 28.552C17.7561 28.464 17.9175 28.3394 18.0495 28.178C18.1815 28.0167 18.2731 27.826 18.3245 27.606V26.649C18.2658 26.4437 18.1668 26.2677 18.0275 26.121C17.8881 25.967 17.7195 25.846 17.5215 25.758C17.3308 25.67 17.1181 25.626 16.8835 25.626C16.6195 25.626 16.3775 25.692 16.1575 25.824C15.9375 25.9487 15.7615 26.1247 15.6295 26.352C15.4975 26.5794 15.4315 26.8434 15.4315 27.144C15.4315 27.43 15.4975 27.6904 15.6295 27.925C15.7688 28.1597 15.9521 28.3467 16.1795 28.486C16.4068 28.618 16.6525 28.684 16.9165 28.684ZM21.6332 22.865H22.7662V24.9H23.9982V25.791H22.7662V29.498H21.6332V25.791H20.8192V24.9H21.6332V22.865ZM26.5635 29.597C26.2262 29.597 25.8999 29.5384 25.5845 29.421C25.2692 29.2964 25.0089 29.1167 24.8035 28.882L25.2875 28.244C25.4855 28.4274 25.6835 28.5667 25.8815 28.662C26.0869 28.75 26.2812 28.794 26.4645 28.794C26.6112 28.794 26.7432 28.7794 26.8605 28.75C26.9779 28.7134 27.0732 28.6547 27.1465 28.574C27.2199 28.4934 27.2565 28.387 27.2565 28.255C27.2565 28.101 27.2052 27.98 27.1025 27.892C26.9999 27.804 26.8679 27.7307 26.7065 27.672C26.5452 27.6134 26.3729 27.5584 26.1895 27.507C25.8009 27.3824 25.5075 27.2064 25.3095 26.979C25.1115 26.7444 25.0125 26.4694 25.0125 26.154C25.0125 25.912 25.0712 25.6847 25.1885 25.472C25.3132 25.252 25.5002 25.0724 25.7495 24.933C25.9989 24.7937 26.3069 24.724 26.6735 24.724C27.0109 24.724 27.3079 24.7644 27.5645 24.845C27.8212 24.9184 28.0595 25.0467 28.2795 25.23L27.8395 25.912C27.7075 25.78 27.5499 25.681 27.3665 25.615C27.1905 25.5417 27.0292 25.5014 26.8825 25.494C26.7505 25.494 26.6295 25.516 26.5195 25.56C26.4095 25.5967 26.3215 25.6554 26.2555 25.736C26.1895 25.8094 26.1565 25.8974 26.1565 26C26.1492 26.1467 26.1969 26.2677 26.2995 26.363C26.4095 26.451 26.5489 26.5244 26.7175 26.583C26.8862 26.6344 27.0512 26.6894 27.2125 26.748C27.4399 26.814 27.6415 26.9057 27.8175 27.023C27.9935 27.133 28.1329 27.2687 28.2355 27.43C28.3382 27.5914 28.3895 27.7967 28.3895 28.046C28.3895 28.3174 28.3235 28.574 28.1915 28.816C28.0595 29.0507 27.8579 29.2414 27.5865 29.388C27.3152 29.5274 26.9742 29.597 26.5635 29.597Z" fill="#918A89"/>
<path d="M11 5.99805H19M11 9.99805H17M21 0.998047C21.7956 0.998047 22.5587 1.31412 23.1213 1.87673C23.6839 2.43934 24 3.2024 24 3.99805V11.998C24 12.7937 23.6839 13.5568 23.1213 14.1194C22.5587 14.682 21.7956 14.998 21 14.998H16L11 17.998V14.998H9C8.20435 14.998 7.44129 14.682 6.87868 14.1194C6.31607 13.5568 6 12.7937 6 11.998V3.99805C6 3.2024 6.31607 2.43934 6.87868 1.87673C7.44129 1.31412 8.20435 0.998047 9 0.998047H21Z" stroke="#918A89" stroke-width="2" stroke-linecap="round" stroke-linejoin="round"/>
</svg>
