<svg width="46" height="35" viewBox="0 0 46 35" fill="none" xmlns="http://www.w3.org/2000/svg">
<path d="M1.122 23.512H6.369V24.645H2.299V26.922H5.918V28.055H2.299V30.365H6.523V31.498H1.122V23.512ZM9.89201 28.55L10.948 26.889H12.081L10.299 29.375L9.89201 28.55ZM12.268 31.498H10.915L7.39501 26.889H8.79201L12.268 31.498ZM9.76001 29.837L8.59401 31.498H7.45001L9.23201 29.078L9.76001 29.837ZM15.4217 31.608C14.8864 31.608 14.4281 31.5054 14.0467 31.3C13.6654 31.0874 13.3721 30.7977 13.1667 30.431C12.9614 30.057 12.8587 29.6317 12.8587 29.155C12.8587 28.7004 12.9724 28.2897 13.1997 27.923C13.4344 27.549 13.7461 27.252 14.1347 27.032C14.5307 26.812 14.9671 26.702 15.4437 26.702C16.0597 26.702 16.5694 26.8817 16.9727 27.241C17.3834 27.6004 17.6584 28.1027 17.7977 28.748L14.0467 30.046L13.7827 29.386L16.7857 28.308L16.5547 28.451C16.4667 28.2237 16.3274 28.0257 16.1367 27.857C15.9461 27.681 15.6857 27.593 15.3557 27.593C15.0917 27.593 14.8534 27.659 14.6407 27.791C14.4354 27.9157 14.2704 28.0917 14.1457 28.319C14.0284 28.539 13.9697 28.7994 13.9697 29.1C13.9697 29.408 14.0321 29.6794 14.1567 29.914C14.2887 30.1414 14.4647 30.321 14.6847 30.453C14.9121 30.585 15.1651 30.651 15.4437 30.651C15.6417 30.651 15.8287 30.6144 16.0047 30.541C16.1881 30.4677 16.3604 30.376 16.5217 30.266L17.0387 31.102C16.7967 31.256 16.5327 31.3807 16.2467 31.476C15.9681 31.564 15.6931 31.608 15.4217 31.608ZM20.0675 26.889L20.1775 28.209L20.1225 28.033C20.2472 27.7544 20.4232 27.516 20.6505 27.318C20.8779 27.12 21.1125 26.9697 21.3545 26.867C21.6039 26.757 21.8129 26.702 21.9815 26.702L21.9265 27.824C21.5745 27.802 21.2665 27.868 21.0025 28.022C20.7459 28.176 20.5442 28.3814 20.3975 28.638C20.2509 28.8947 20.1775 29.1697 20.1775 29.463V31.498H19.0555V26.889H20.0675ZM26.8461 31.069C26.6408 31.2377 26.3914 31.3697 26.0981 31.465C25.8121 31.5604 25.5224 31.608 25.2291 31.608C24.7231 31.608 24.2758 31.509 23.8871 31.311C23.5058 31.113 23.2088 30.8344 22.9961 30.475C22.7834 30.1157 22.6771 29.6867 22.6771 29.188C22.6771 28.6967 22.7908 28.2714 23.0181 27.912C23.2454 27.5454 23.5461 27.2667 23.9201 27.076C24.2941 26.878 24.6901 26.779 25.1081 26.779C25.4894 26.779 25.8268 26.8304 26.1201 26.933C26.4134 27.0357 26.6664 27.1787 26.8791 27.362L26.3181 28.099C26.1934 27.9964 26.0358 27.9047 25.8451 27.824C25.6618 27.7434 25.4491 27.703 25.2071 27.703C24.9504 27.703 24.7158 27.769 24.5031 27.901C24.2904 28.0257 24.1218 28.2017 23.9971 28.429C23.8724 28.649 23.8101 28.902 23.8101 29.188C23.8101 29.4594 23.8724 29.7124 23.9971 29.947C24.1291 30.1744 24.3088 30.354 24.5361 30.486C24.7634 30.618 25.0238 30.684 25.3171 30.684C25.5078 30.684 25.6838 30.6584 25.8451 30.607C26.0064 30.5484 26.1494 30.4677 26.2741 30.365L26.8461 31.069ZM28.1434 26.889H29.2764V31.498H28.1434V26.889ZM28.0774 25.239C28.0774 25.063 28.1471 24.9164 28.2864 24.799C28.4257 24.6817 28.5761 24.623 28.7374 24.623C28.9061 24.623 29.0564 24.6817 29.1884 24.799C29.3204 24.9164 29.3864 25.063 29.3864 25.239C29.3864 25.415 29.3204 25.5617 29.1884 25.679C29.0564 25.789 28.9061 25.844 28.7374 25.844C28.5761 25.844 28.4257 25.789 28.2864 25.679C28.1471 25.5617 28.0774 25.415 28.0774 25.239ZM32.3428 31.597C32.0055 31.597 31.6792 31.5384 31.3638 31.421C31.0485 31.2964 30.7882 31.1167 30.5828 30.882L31.0668 30.244C31.2648 30.4274 31.4628 30.5667 31.6608 30.662C31.8662 30.75 32.0605 30.794 32.2438 30.794C32.3905 30.794 32.5225 30.7794 32.6398 30.75C32.7572 30.7134 32.8525 30.6547 32.9258 30.574C32.9992 30.4934 33.0358 30.387 33.0358 30.255C33.0358 30.101 32.9845 29.98 32.8818 29.892C32.7792 29.804 32.6472 29.7307 32.4858 29.672C32.3245 29.6134 32.1522 29.5584 31.9688 29.507C31.5802 29.3824 31.2868 29.2064 31.0888 28.979C30.8908 28.7444 30.7918 28.4694 30.7918 28.154C30.7918 27.912 30.8505 27.6847 30.9678 27.472C31.0925 27.252 31.2795 27.0724 31.5288 26.933C31.7782 26.7937 32.0862 26.724 32.4528 26.724C32.7902 26.724 33.0872 26.7644 33.3438 26.845C33.6005 26.9184 33.8388 27.0467 34.0588 27.23L33.6188 27.912C33.4868 27.78 33.3292 27.681 33.1458 27.615C32.9698 27.5417 32.8085 27.5014 32.6618 27.494C32.5298 27.494 32.4088 27.516 32.2988 27.56C32.1888 27.5967 32.1008 27.6554 32.0348 27.736C31.9688 27.8094 31.9358 27.8974 31.9358 28C31.9285 28.1467 31.9762 28.2677 32.0788 28.363C32.1888 28.451 32.3282 28.5244 32.4968 28.583C32.6655 28.6344 32.8305 28.6894 32.9918 28.748C33.2192 28.814 33.4208 28.9057 33.5968 29.023C33.7728 29.133 33.9122 29.2687 34.0148 29.43C34.1175 29.5914 34.1688 29.7967 34.1688 30.046C34.1688 30.3174 34.1028 30.574 33.9708 30.816C33.8388 31.0507 33.6372 31.2414 33.3658 31.388C33.0945 31.5274 32.7535 31.597 32.3428 31.597ZM37.7333 31.608C37.1979 31.608 36.7396 31.5054 36.3583 31.3C35.9769 31.0874 35.6836 30.7977 35.4783 30.431C35.2729 30.057 35.1703 29.6317 35.1703 29.155C35.1703 28.7004 35.2839 28.2897 35.5113 27.923C35.7459 27.549 36.0576 27.252 36.4463 27.032C36.8423 26.812 37.2786 26.702 37.7553 26.702C38.3713 26.702 38.8809 26.8817 39.2843 27.241C39.6949 27.6004 39.9699 28.1027 40.1093 28.748L36.3583 30.046L36.0943 29.386L39.0973 28.308L38.8663 28.451C38.7783 28.2237 38.6389 28.0257 38.4483 27.857C38.2576 27.681 37.9973 27.593 37.6673 27.593C37.4033 27.593 37.1649 27.659 36.9523 27.791C36.7469 27.9157 36.5819 28.0917 36.4573 28.319C36.3399 28.539 36.2813 28.7994 36.2813 29.1C36.2813 29.408 36.3436 29.6794 36.4683 29.914C36.6003 30.1414 36.7763 30.321 36.9963 30.453C37.2236 30.585 37.4766 30.651 37.7553 30.651C37.9533 30.651 38.1403 30.6144 38.3163 30.541C38.4996 30.4677 38.6719 30.376 38.8333 30.266L39.3503 31.102C39.1083 31.256 38.8443 31.3807 38.5583 31.476C38.2796 31.564 38.0046 31.608 37.7333 31.608ZM42.709 31.597C42.3717 31.597 42.0454 31.5384 41.73 31.421C41.4147 31.2964 41.1544 31.1167 40.949 30.882L41.433 30.244C41.631 30.4274 41.829 30.5667 42.027 30.662C42.2324 30.75 42.4267 30.794 42.61 30.794C42.7567 30.794 42.8887 30.7794 43.006 30.75C43.1234 30.7134 43.2187 30.6547 43.292 30.574C43.3654 30.4934 43.402 30.387 43.402 30.255C43.402 30.101 43.3507 29.98 43.248 29.892C43.1454 29.804 43.0134 29.7307 42.852 29.672C42.6907 29.6134 42.5184 29.5584 42.335 29.507C41.9464 29.3824 41.653 29.2064 41.455 28.979C41.257 28.7444 41.158 28.4694 41.158 28.154C41.158 27.912 41.2167 27.6847 41.334 27.472C41.4587 27.252 41.6457 27.0724 41.895 26.933C42.1444 26.7937 42.4524 26.724 42.819 26.724C43.1564 26.724 43.4534 26.7644 43.71 26.845C43.9667 26.9184 44.205 27.0467 44.425 27.23L43.985 27.912C43.853 27.78 43.6954 27.681 43.512 27.615C43.336 27.5417 43.1747 27.5014 43.028 27.494C42.896 27.494 42.775 27.516 42.665 27.56C42.555 27.5967 42.467 27.6554 42.401 27.736C42.335 27.8094 42.302 27.8974 42.302 28C42.2947 28.1467 42.3424 28.2677 42.445 28.363C42.555 28.451 42.6944 28.5244 42.863 28.583C43.0317 28.6344 43.1967 28.6894 43.358 28.748C43.5854 28.814 43.787 28.9057 43.963 29.023C44.139 29.133 44.2784 29.2687 44.381 29.43C44.4837 29.5914 44.535 29.7967 44.535 30.046C44.535 30.3174 44.469 30.574 44.337 30.816C44.205 31.0507 44.0034 31.2414 43.732 31.388C43.4607 31.5274 43.1197 31.597 42.709 31.597Z" fill="#918A89"/>
<path d="M27.755 1.49756H18.245C17.086 1.49756 16.507 1.49756 16.039 1.66056C15.5978 1.81701 15.1986 2.07306 14.8723 2.40882C14.5461 2.74458 14.3017 3.15101 14.158 3.59656C14 4.07856 14 4.67456 14 5.86756V19.8716C14 20.7296 14.985 21.1856 15.608 20.6156C15.7828 20.4541 16.012 20.3644 16.25 20.3644C16.488 20.3644 16.7172 20.4541 16.892 20.6156L17.375 21.0576C17.6812 21.3407 18.0829 21.498 18.5 21.498C18.9171 21.498 19.3188 21.3407 19.625 21.0576C19.9312 20.7744 20.3329 20.6171 20.75 20.6171C21.1671 20.6171 21.5688 20.7744 21.875 21.0576C22.1812 21.3407 22.5829 21.498 23 21.498C23.4171 21.498 23.8188 21.3407 24.125 21.0576C24.4312 20.7744 24.8329 20.6171 25.25 20.6171C25.6671 20.6171 26.0688 20.7744 26.375 21.0576C26.6812 21.3407 27.0829 21.498 27.5 21.498C27.9171 21.498 28.3188 21.3407 28.625 21.0576L29.108 20.6156C29.2828 20.4541 29.512 20.3644 29.75 20.3644C29.988 20.3644 30.2172 20.4541 30.392 20.6156C31.015 21.1856 32 20.7296 32 19.8716V5.86756C32 4.67456 32 4.07756 31.842 3.59756C31.6985 3.15179 31.4542 2.74513 31.1279 2.40918C30.8017 2.07323 30.4024 1.81705 29.961 1.66056C29.493 1.49756 28.914 1.49756 27.755 1.49756Z" stroke="#918A89" stroke-width="1.5"/>
<path d="M21.5 10.4976H28M18 10.4976H18.5M18 6.99756H18.5M18 13.9976H18.5M21.5 6.99756H28M21.5 13.9976H28" stroke="#918A89" stroke-width="1.5" stroke-linecap="round"/>
</svg>
