<svg width="35" height="34" viewBox="0 0 35 34" fill="none" xmlns="http://www.w3.org/2000/svg">
<path d="M11.6325 20.998C11.2677 20.9986 10.9046 20.9507 10.5525 20.8555C9.49566 20.5541 8.59905 19.8506 8.05503 18.8957C7.511 17.9409 7.36289 16.8108 7.64248 15.748L9.38998 9.11802C9.52787 8.58416 9.77064 8.08309 10.1041 7.644C10.4376 7.20492 10.8552 6.8366 11.3325 6.56052C11.7987 6.29048 12.3139 6.11564 12.8481 6.04611C13.3824 5.97659 13.9252 6.01378 14.445 6.15552C14.9962 6.30725 15.51 6.57151 15.9541 6.93165C16.3981 7.29179 16.7627 7.73999 17.025 8.24802H18.975C19.2345 7.73638 19.598 7.28462 20.0423 6.92169C20.4866 6.55876 21.0018 6.29269 21.555 6.14052C22.0748 5.99878 22.6175 5.9616 23.1518 6.03112C23.6861 6.10064 24.2013 6.27548 24.6675 6.54552C25.1445 6.82193 25.5619 7.19035 25.8953 7.62938C26.2288 8.06842 26.4717 8.56932 26.61 9.10302L28.3575 15.748C28.6412 16.8139 28.4943 17.9486 27.9484 18.9071C27.4025 19.8656 26.5015 20.5708 25.44 20.8705C24.9202 21.0123 24.3774 21.0494 23.8431 20.9799C23.3089 20.9104 22.7937 20.7356 22.3275 20.4655C21.8502 20.1894 21.4326 19.8211 21.0991 19.382C20.7656 18.9429 20.5229 18.4419 20.385 17.908L20.25 17.248H15.75L15.5775 17.893C15.4396 18.4269 15.1968 18.9279 14.8633 19.367C14.5298 19.8061 14.1123 20.1744 13.635 20.4505C13.0256 20.802 12.3359 20.9906 11.6325 20.998ZM13.3725 7.49802C12.9199 7.49955 12.4754 7.61842 12.0825 7.84302C11.777 8.0213 11.5098 8.25818 11.2961 8.54005C11.0824 8.82192 10.9266 9.14323 10.8375 9.48552L9.08998 16.1155C8.90712 16.7986 8.99952 17.5261 9.34732 18.1418C9.69511 18.7574 10.2706 19.2121 10.95 19.408C11.2781 19.4975 11.6207 19.5211 11.958 19.4773C12.2953 19.4335 12.6206 19.3233 12.915 19.153C13.2207 18.9751 13.4882 18.7383 13.7018 18.4564C13.9155 18.1744 14.0713 17.853 14.16 17.5105L14.625 15.748H21.375L21.8325 17.5105C22.014 18.2011 22.4616 18.7917 23.0775 19.153C23.3733 19.3231 23.6999 19.4332 24.0383 19.477C24.3768 19.5207 24.7206 19.4973 25.05 19.408C25.7302 19.2139 26.3064 18.7592 26.6532 18.1427C27.0001 17.5262 27.0897 16.7977 26.9025 16.1155L25.155 9.48552C25.0687 9.14304 24.9148 8.82128 24.7022 8.5392C24.4897 8.25712 24.2229 8.02041 23.9175 7.84302C23.6216 7.67289 23.2951 7.5628 22.9566 7.51904C22.6182 7.47528 22.2744 7.49872 21.945 7.58802C21.5376 7.70414 21.1638 7.91578 20.8547 8.20536C20.5455 8.49494 20.3099 8.8541 20.1675 9.25302L19.9875 9.74802H16.0125L15.8325 9.25302C15.6887 8.85357 15.4518 8.49415 15.1414 8.20459C14.831 7.91502 14.4559 7.70365 14.0475 7.58802C13.8274 7.52867 13.6004 7.49841 13.3725 7.49802Z" fill="#918A89"/>
<path d="M13.5 13.498C13.2033 13.498 12.9133 13.4101 12.6666 13.2453C12.42 13.0804 12.2277 12.8462 12.1142 12.5721C12.0006 12.298 11.9709 11.9964 12.0288 11.7054C12.0867 11.4144 12.2296 11.1472 12.4393 10.9374C12.6491 10.7276 12.9164 10.5847 13.2074 10.5269C13.4983 10.469 13.7999 10.4987 14.074 10.6122C14.3481 10.7258 14.5824 10.918 14.7472 11.1647C14.912 11.4114 15 11.7014 15 11.998C15 12.3959 14.842 12.7774 14.5607 13.0587C14.2794 13.34 13.8978 13.498 13.5 13.498Z" fill="#918A89"/>
<path d="M22.5 11.248C22.9142 11.248 23.25 10.9123 23.25 10.498C23.25 10.0838 22.9142 9.74805 22.5 9.74805C22.0858 9.74805 21.75 10.0838 21.75 10.498C21.75 10.9123 22.0858 11.248 22.5 11.248Z" fill="#918A89"/>
<path d="M22.5 14.248C22.9142 14.248 23.25 13.9123 23.25 13.498C23.25 13.0838 22.9142 12.748 22.5 12.748C22.0858 12.748 21.75 13.0838 21.75 13.498C21.75 13.9123 22.0858 14.248 22.5 14.248Z" fill="#918A89"/>
<path d="M21 12.748C21.4142 12.748 21.75 12.4123 21.75 11.998C21.75 11.5838 21.4142 11.248 21 11.248C20.5858 11.248 20.25 11.5838 20.25 11.998C20.25 12.4123 20.5858 12.748 21 12.748Z" fill="#918A89"/>
<path d="M24 12.748C24.4142 12.748 24.75 12.4123 24.75 11.998C24.75 11.5838 24.4142 11.248 24 11.248C23.5858 11.248 23.25 11.5838 23.25 11.998C23.25 12.4123 23.5858 12.748 24 12.748Z" fill="#918A89"/>
<path d="M16.3125 5.24758L15.1875 4.25008C15.5394 3.85105 15.9722 3.53148 16.4571 3.31258C16.942 3.09368 17.468 2.98047 18 2.98047C18.532 2.98047 19.058 3.09368 19.5429 3.31258C20.0278 3.53148 20.4606 3.85105 20.8125 4.25008L19.6875 5.24758C19.4764 5.00816 19.2167 4.81642 18.9257 4.68508C18.6348 4.55374 18.3192 4.48581 18 4.48581C17.6808 4.48581 17.3652 4.55374 17.0743 4.68508C16.7833 4.81642 16.5236 5.00816 16.3125 5.24758Z" fill="#918A89"/>
<path d="M21.9375 3.27529C21.4448 2.71666 20.8389 2.26925 20.16 1.96279C19.4812 1.65634 18.7448 1.49784 18 1.49784C17.2552 1.49784 16.5188 1.65634 15.84 1.96279C15.1611 2.26925 14.5552 2.71666 14.0625 3.27529L12.9375 2.28529C13.5709 1.56705 14.3499 0.991812 15.2228 0.597795C16.0956 0.203777 17.0423 0 18 0C18.9577 0 19.9044 0.203777 20.7772 0.597795C21.6501 0.991812 22.4291 1.56705 23.0625 2.28529L21.9375 3.27529Z" fill="#918A89"/>
<path d="M7.425 29.794C7.315 29.8894 7.161 29.9847 6.963 30.08C6.765 30.1754 6.54133 30.2597 6.292 30.333C6.05 30.4064 5.80067 30.465 5.544 30.509C5.28733 30.5604 5.04533 30.586 4.818 30.586C4.17267 30.586 3.59333 30.487 3.08 30.289C2.56667 30.091 2.12667 29.816 1.76 29.464C1.39333 29.112 1.111 28.7014 0.913 28.232C0.722333 27.7554 0.627 27.2384 0.627 26.681C0.627 25.999 0.737 25.394 0.957 24.866C1.177 24.338 1.474 23.8944 1.848 23.535C2.22933 23.1684 2.66567 22.8934 3.157 22.71C3.65567 22.5194 4.17633 22.424 4.719 22.424C5.19567 22.424 5.63567 22.479 6.039 22.589C6.44967 22.699 6.80167 22.842 7.095 23.018L6.71 24.096C6.56333 24.0154 6.38 23.9384 6.16 23.865C5.94733 23.7844 5.72733 23.722 5.5 23.678C5.27267 23.634 5.06367 23.612 4.873 23.612C4.40367 23.612 3.982 23.6817 3.608 23.821C3.24133 23.953 2.926 24.1474 2.662 24.404C2.398 24.6607 2.19267 24.9724 2.046 25.339C1.90667 25.7057 1.837 26.12 1.837 26.582C1.837 27 1.91033 27.385 2.057 27.737C2.20367 28.0817 2.409 28.3824 2.673 28.639C2.937 28.8884 3.25233 29.0827 3.619 29.222C3.98567 29.354 4.39267 29.42 4.84 29.42C5.09667 29.42 5.34967 29.3944 5.599 29.343C5.84833 29.2917 6.061 29.2184 6.237 29.123V27.671H4.697V26.538H7.425V29.794ZM11.087 30.608C10.6543 30.608 10.262 30.52 9.90997 30.344C9.55797 30.1607 9.2793 29.8894 9.07397 29.53C8.86864 29.1707 8.76597 28.727 8.76597 28.199C8.76597 27.6784 8.8723 27.231 9.08497 26.857C9.30497 26.483 9.59097 26.197 9.94297 25.999C10.3023 25.7937 10.691 25.691 11.109 25.691C11.549 25.691 11.9083 25.7864 12.187 25.977C12.473 26.1604 12.6966 26.3767 12.858 26.626L12.781 26.802L12.891 25.889H13.936V30.498H12.803V29.343L12.924 29.618C12.8946 29.6767 12.8323 29.761 12.737 29.871C12.6416 29.9737 12.5133 30.0837 12.352 30.201C12.198 30.3184 12.0146 30.4174 11.802 30.498C11.5966 30.5714 11.3583 30.608 11.087 30.608ZM11.395 29.684C11.637 29.684 11.8533 29.64 12.044 29.552C12.2346 29.464 12.396 29.3394 12.528 29.178C12.66 29.0167 12.7516 28.826 12.803 28.606V27.649C12.7443 27.4437 12.6453 27.2677 12.506 27.121C12.3666 26.967 12.198 26.846 12 26.758C11.8093 26.67 11.5966 26.626 11.362 26.626C11.098 26.626 10.856 26.692 10.636 26.824C10.416 26.9487 10.24 27.1247 10.108 27.352C9.97597 27.5794 9.90997 27.8434 9.90997 28.144C9.90997 28.43 9.97597 28.6904 10.108 28.925C10.2473 29.1597 10.4306 29.3467 10.658 29.486C10.8853 29.618 11.131 29.684 11.395 29.684ZM16.6837 25.889L16.7827 26.879L16.7387 26.802C16.9147 26.4574 17.1567 26.1897 17.4647 25.999C17.7727 25.801 18.1284 25.702 18.5317 25.702C18.7811 25.702 19.0047 25.7424 19.2027 25.823C19.4081 25.9037 19.5767 26.0174 19.7087 26.164C19.8407 26.3107 19.9251 26.494 19.9617 26.714L19.9067 26.747C20.0901 26.4244 20.3321 26.1714 20.6327 25.988C20.9407 25.7974 21.2671 25.702 21.6117 25.702C22.0591 25.702 22.4147 25.8304 22.6787 26.087C22.9501 26.3437 23.0894 26.6737 23.0967 27.077V30.498H21.9747V27.506C21.9674 27.2787 21.9124 27.088 21.8097 26.934C21.7144 26.78 21.5421 26.6957 21.2927 26.681C21.0287 26.681 20.7941 26.7617 20.5887 26.923C20.3907 27.0844 20.2367 27.2934 20.1267 27.55C20.0167 27.8067 19.9581 28.0817 19.9507 28.375V30.498H18.8177V27.506C18.8104 27.2787 18.7554 27.088 18.6527 26.934C18.5501 26.78 18.3704 26.6957 18.1137 26.681C17.8497 26.681 17.6187 26.7617 17.4207 26.923C17.2227 27.0844 17.0687 27.297 16.9587 27.561C16.8561 27.8177 16.8047 28.089 16.8047 28.375V30.498H15.6717V25.889H16.6837ZM27.0018 30.608C26.4665 30.608 26.0082 30.5054 25.6268 30.3C25.2455 30.0874 24.9522 29.7977 24.7468 29.431C24.5415 29.057 24.4388 28.6317 24.4388 28.155C24.4388 27.7004 24.5525 27.2897 24.7798 26.923C25.0145 26.549 25.3262 26.252 25.7148 26.032C26.1108 25.812 26.5472 25.702 27.0238 25.702C27.6398 25.702 28.1495 25.8817 28.5528 26.241C28.9635 26.6004 29.2385 27.1027 29.3778 27.748L25.6268 29.046L25.3628 28.386L28.3658 27.308L28.1348 27.451C28.0468 27.2237 27.9075 27.0257 27.7168 26.857C27.5262 26.681 27.2658 26.593 26.9358 26.593C26.6718 26.593 26.4335 26.659 26.2208 26.791C26.0155 26.9157 25.8505 27.0917 25.7258 27.319C25.6085 27.539 25.5498 27.7994 25.5498 28.1C25.5498 28.408 25.6122 28.6794 25.7368 28.914C25.8688 29.1414 26.0448 29.321 26.2648 29.453C26.4922 29.585 26.7452 29.651 27.0238 29.651C27.2218 29.651 27.4088 29.6144 27.5848 29.541C27.7682 29.4677 27.9405 29.376 28.1018 29.266L28.6188 30.102C28.3768 30.256 28.1128 30.3807 27.8268 30.476C27.5482 30.564 27.2732 30.608 27.0018 30.608ZM31.9776 30.597C31.6403 30.597 31.3139 30.5384 30.9986 30.421C30.6833 30.2964 30.4229 30.1167 30.2176 29.882L30.7016 29.244C30.8996 29.4274 31.0976 29.5667 31.2956 29.662C31.5009 29.75 31.6953 29.794 31.8786 29.794C32.0253 29.794 32.1573 29.7794 32.2746 29.75C32.3919 29.7134 32.4873 29.6547 32.5606 29.574C32.6339 29.4934 32.6706 29.387 32.6706 29.255C32.6706 29.101 32.6193 28.98 32.5166 28.892C32.4139 28.804 32.2819 28.7307 32.1206 28.672C31.9593 28.6134 31.7869 28.5584 31.6036 28.507C31.2149 28.3824 30.9216 28.2064 30.7236 27.979C30.5256 27.7444 30.4266 27.4694 30.4266 27.154C30.4266 26.912 30.4853 26.6847 30.6026 26.472C30.7273 26.252 30.9143 26.0724 31.1636 25.933C31.4129 25.7937 31.7209 25.724 32.0876 25.724C32.4249 25.724 32.7219 25.7644 32.9786 25.845C33.2353 25.9184 33.4736 26.0467 33.6936 26.23L33.2536 26.912C33.1216 26.78 32.9639 26.681 32.7806 26.615C32.6046 26.5417 32.4433 26.5014 32.2966 26.494C32.1646 26.494 32.0436 26.516 31.9336 26.56C31.8236 26.5967 31.7356 26.6554 31.6696 26.736C31.6036 26.8094 31.5706 26.8974 31.5706 27C31.5633 27.1467 31.6109 27.2677 31.7136 27.363C31.8236 27.451 31.9629 27.5244 32.1316 27.583C32.3003 27.6344 32.4653 27.6894 32.6266 27.748C32.8539 27.814 33.0556 27.9057 33.2316 28.023C33.4076 28.133 33.5469 28.2687 33.6496 28.43C33.7523 28.5914 33.8036 28.7967 33.8036 29.046C33.8036 29.3174 33.7376 29.574 33.6056 29.816C33.4736 30.0507 33.2719 30.2414 33.0006 30.388C32.7293 30.5274 32.3883 30.597 31.9776 30.597Z" fill="#918A89"/>
</svg>
