<svg width="30" height="35" viewBox="0 0 30 35" fill="none" xmlns="http://www.w3.org/2000/svg">
<path d="M7.524 23.512V31.498H6.347V28.055H2.299V31.498H1.122V23.512H2.299V26.933H6.347V23.512H7.524ZM9.12046 29.144C9.12046 28.682 9.23046 28.2677 9.45046 27.901C9.67046 27.527 9.97479 27.2337 10.3635 27.021C10.7521 26.8084 11.1958 26.702 11.6945 26.702C12.2005 26.702 12.6441 26.8084 13.0255 27.021C13.4068 27.2337 13.7001 27.527 13.9055 27.901C14.1181 28.2677 14.2245 28.682 14.2245 29.144C14.2245 29.606 14.1181 30.024 13.9055 30.398C13.7001 30.772 13.4068 31.069 13.0255 31.289C12.6441 31.5017 12.1968 31.608 11.6835 31.608C11.1921 31.608 10.7521 31.509 10.3635 31.311C9.98213 31.113 9.67779 30.8307 9.45046 30.464C9.23046 30.09 9.12046 29.65 9.12046 29.144ZM10.2645 29.155C10.2645 29.441 10.3268 29.7014 10.4515 29.936C10.5761 30.1634 10.7448 30.3467 10.9575 30.486C11.1701 30.618 11.4085 30.684 11.6725 30.684C11.9438 30.684 12.1858 30.618 12.3985 30.486C12.6111 30.3467 12.7761 30.1634 12.8935 29.936C13.0181 29.7014 13.0805 29.441 13.0805 29.155C13.0805 28.869 13.0181 28.6124 12.8935 28.385C12.7761 28.1577 12.6111 27.9744 12.3985 27.835C12.1858 27.6957 11.9438 27.626 11.6725 27.626C11.4011 27.626 11.1591 27.6957 10.9465 27.835C10.7338 27.9744 10.5651 28.1614 10.4405 28.396C10.3231 28.6234 10.2645 28.8764 10.2645 29.155ZM16.5763 26.889L16.6753 27.879L16.6313 27.802C16.8073 27.4574 17.0493 27.1897 17.3573 26.999C17.6653 26.801 18.021 26.702 18.4243 26.702C18.6736 26.702 18.8973 26.7424 19.0953 26.823C19.3006 26.9037 19.4693 27.0174 19.6013 27.164C19.7333 27.3107 19.8176 27.494 19.8543 27.714L19.7993 27.747C19.9826 27.4244 20.2246 27.1714 20.5253 26.988C20.8333 26.7974 21.1596 26.702 21.5043 26.702C21.9516 26.702 22.3073 26.8304 22.5713 27.087C22.8426 27.3437 22.982 27.6737 22.9893 28.077V31.498H21.8673V28.506C21.86 28.2787 21.805 28.088 21.7023 27.934C21.607 27.78 21.4346 27.6957 21.1853 27.681C20.9213 27.681 20.6866 27.7617 20.4813 27.923C20.2833 28.0844 20.1293 28.2934 20.0193 28.55C19.9093 28.8067 19.8506 29.0817 19.8433 29.375V31.498H18.7103V28.506C18.703 28.2787 18.648 28.088 18.5453 27.934C18.4426 27.78 18.263 27.6957 18.0063 27.681C17.7423 27.681 17.5113 27.7617 17.3133 27.923C17.1153 28.0844 16.9613 28.297 16.8513 28.561C16.7486 28.8177 16.6973 29.089 16.6973 29.375V31.498H15.5643V26.889H16.5763ZM26.8944 31.608C26.3591 31.608 25.9007 31.5054 25.5194 31.3C25.1381 31.0874 24.8447 30.7977 24.6394 30.431C24.4341 30.057 24.3314 29.6317 24.3314 29.155C24.3314 28.7004 24.4451 28.2897 24.6724 27.923C24.9071 27.549 25.2187 27.252 25.6074 27.032C26.0034 26.812 26.4397 26.702 26.9164 26.702C27.5324 26.702 28.0421 26.8817 28.4454 27.241C28.8561 27.6004 29.1311 28.1027 29.2704 28.748L25.5194 30.046L25.2554 29.386L28.2584 28.308L28.0274 28.451C27.9394 28.2237 27.8001 28.0257 27.6094 27.857C27.4187 27.681 27.1584 27.593 26.8284 27.593C26.5644 27.593 26.3261 27.659 26.1134 27.791C25.9081 27.9157 25.7431 28.0917 25.6184 28.319C25.5011 28.539 25.4424 28.7994 25.4424 29.1C25.4424 29.408 25.5047 29.6794 25.6294 29.914C25.7614 30.1414 25.9374 30.321 26.1574 30.453C26.3847 30.585 26.6377 30.651 26.9164 30.651C27.1144 30.651 27.3014 30.6144 27.4774 30.541C27.6607 30.4677 27.8331 30.376 27.9944 30.266L28.5114 31.102C28.2694 31.256 28.0054 31.3807 27.7194 31.476C27.4407 31.564 27.1657 31.608 26.8944 31.608Z" fill="#650C01"/>
<path d="M7.22222 11.498H5L15 1.49805L25 11.498H22.7778M7.22222 11.498V19.2758C7.22222 19.8652 7.45635 20.4304 7.8731 20.8472C8.28984 21.2639 8.85507 21.498 9.44444 21.498H20.5556C21.1449 21.498 21.7102 21.2639 22.1269 20.8472C22.5437 20.4304 22.7778 19.8652 22.7778 19.2758V11.498" stroke="#650C01" stroke-width="1.5" stroke-linecap="round" stroke-linejoin="round"/>
<path d="M12 21V15.2222C12 14.6329 12.2341 14.0676 12.6509 13.6509C13.0676 13.2341 13.6329 13 14.2222 13H16.4444C17.0338 13 17.599 13.2341 18.0158 13.6509C18.4325 14.0676 18.6667 14.6329 18.6667 15.2222V21" stroke="#650C01" stroke-width="1.5" stroke-linecap="round" stroke-linejoin="round"/>
</svg>
