<svg width="35" height="34" viewBox="0 0 35 34" fill="none" xmlns="http://www.w3.org/2000/svg">
<path d="M1.122 22.512H2.299V29.365H6.292V30.498H1.122V22.512ZM9.92174 30.608C9.38641 30.608 8.92808 30.5054 8.54674 30.3C8.16541 30.0874 7.87208 29.7977 7.66674 29.431C7.46141 29.057 7.35874 28.6317 7.35874 28.155C7.35874 27.7004 7.47241 27.2897 7.69974 26.923C7.93441 26.549 8.24608 26.252 8.63474 26.032C9.03074 25.812 9.46708 25.702 9.94374 25.702C10.5597 25.702 11.0694 25.8817 11.4727 26.241C11.8834 26.6004 12.1584 27.1027 12.2977 27.748L8.54674 29.046L8.28274 28.386L11.2857 27.308L11.0547 27.451C10.9667 27.2237 10.8274 27.0257 10.6367 26.857C10.4461 26.681 10.1857 26.593 9.85574 26.593C9.59174 26.593 9.35341 26.659 9.14074 26.791C8.93541 26.9157 8.77041 27.0917 8.64574 27.319C8.52841 27.539 8.46974 27.7994 8.46974 28.1C8.46974 28.408 8.53208 28.6794 8.65674 28.914C8.78874 29.1414 8.96474 29.321 9.18474 29.453C9.41208 29.585 9.66508 29.651 9.94374 29.651C10.1417 29.651 10.3287 29.6144 10.5047 29.541C10.6881 29.4677 10.8604 29.376 11.0217 29.266L11.5387 30.102C11.2967 30.256 11.0327 30.3807 10.7467 30.476C10.4681 30.564 10.1931 30.608 9.92174 30.608ZM14.8975 30.597C14.5602 30.597 14.2339 30.5384 13.9185 30.421C13.6032 30.2964 13.3429 30.1167 13.1375 29.882L13.6215 29.244C13.8195 29.4274 14.0175 29.5667 14.2155 29.662C14.4209 29.75 14.6152 29.794 14.7985 29.794C14.9452 29.794 15.0772 29.7794 15.1945 29.75C15.3119 29.7134 15.4072 29.6547 15.4805 29.574C15.5539 29.4934 15.5905 29.387 15.5905 29.255C15.5905 29.101 15.5392 28.98 15.4365 28.892C15.3339 28.804 15.2019 28.7307 15.0405 28.672C14.8792 28.6134 14.7069 28.5584 14.5235 28.507C14.1349 28.3824 13.8415 28.2064 13.6435 27.979C13.4455 27.7444 13.3465 27.4694 13.3465 27.154C13.3465 26.912 13.4052 26.6847 13.5225 26.472C13.6472 26.252 13.8342 26.0724 14.0835 25.933C14.3329 25.7937 14.6409 25.724 15.0075 25.724C15.3449 25.724 15.6419 25.7644 15.8985 25.845C16.1552 25.9184 16.3935 26.0467 16.6135 26.23L16.1735 26.912C16.0415 26.78 15.8839 26.681 15.7005 26.615C15.5245 26.5417 15.3632 26.5014 15.2165 26.494C15.0845 26.494 14.9635 26.516 14.8535 26.56C14.7435 26.5967 14.6555 26.6554 14.5895 26.736C14.5235 26.8094 14.4905 26.8974 14.4905 27C14.4832 27.1467 14.5309 27.2677 14.6335 27.363C14.7435 27.451 14.8829 27.5244 15.0515 27.583C15.2202 27.6344 15.3852 27.6894 15.5465 27.748C15.7739 27.814 15.9755 27.9057 16.1515 28.023C16.3275 28.133 16.4669 28.2687 16.5695 28.43C16.6722 28.5914 16.7235 28.7967 16.7235 29.046C16.7235 29.3174 16.6575 29.574 16.5255 29.816C16.3935 30.0507 16.1919 30.2414 15.9205 30.388C15.6492 30.5274 15.3082 30.597 14.8975 30.597ZM19.463 30.597C19.1256 30.597 18.7993 30.5384 18.484 30.421C18.1686 30.2964 17.9083 30.1167 17.703 29.882L18.187 29.244C18.385 29.4274 18.583 29.5667 18.781 29.662C18.9863 29.75 19.1806 29.794 19.364 29.794C19.5106 29.794 19.6426 29.7794 19.76 29.75C19.8773 29.7134 19.9726 29.6547 20.046 29.574C20.1193 29.4934 20.156 29.387 20.156 29.255C20.156 29.101 20.1046 28.98 20.002 28.892C19.8993 28.804 19.7673 28.7307 19.606 28.672C19.4446 28.6134 19.2723 28.5584 19.089 28.507C18.7003 28.3824 18.407 28.2064 18.209 27.979C18.011 27.7444 17.912 27.4694 17.912 27.154C17.912 26.912 17.9706 26.6847 18.088 26.472C18.2126 26.252 18.3996 26.0724 18.649 25.933C18.8983 25.7937 19.2063 25.724 19.573 25.724C19.9103 25.724 20.2073 25.7644 20.464 25.845C20.7206 25.9184 20.959 26.0467 21.179 26.23L20.739 26.912C20.607 26.78 20.4493 26.681 20.266 26.615C20.09 26.5417 19.9286 26.5014 19.782 26.494C19.65 26.494 19.529 26.516 19.419 26.56C19.309 26.5967 19.221 26.6554 19.155 26.736C19.089 26.8094 19.056 26.8974 19.056 27C19.0486 27.1467 19.0963 27.2677 19.199 27.363C19.309 27.451 19.4483 27.5244 19.617 27.583C19.7856 27.6344 19.9506 27.6894 20.112 27.748C20.3393 27.814 20.541 27.9057 20.717 28.023C20.893 28.133 21.0323 28.2687 21.135 28.43C21.2376 28.5914 21.289 28.7967 21.289 29.046C21.289 29.3174 21.223 29.574 21.091 29.816C20.959 30.0507 20.7573 30.2414 20.486 30.388C20.2146 30.5274 19.8736 30.597 19.463 30.597ZM22.2904 28.144C22.2904 27.682 22.4004 27.2677 22.6204 26.901C22.8404 26.527 23.1447 26.2337 23.5334 26.021C23.922 25.8084 24.3657 25.702 24.8644 25.702C25.3704 25.702 25.814 25.8084 26.1954 26.021C26.5767 26.2337 26.87 26.527 27.0754 26.901C27.288 27.2677 27.3944 27.682 27.3944 28.144C27.3944 28.606 27.288 29.024 27.0754 29.398C26.87 29.772 26.5767 30.069 26.1954 30.289C25.814 30.5017 25.3667 30.608 24.8534 30.608C24.362 30.608 23.922 30.509 23.5334 30.311C23.152 30.113 22.8477 29.8307 22.6204 29.464C22.4004 29.09 22.2904 28.65 22.2904 28.144ZM23.4344 28.155C23.4344 28.441 23.4967 28.7014 23.6214 28.936C23.746 29.1634 23.9147 29.3467 24.1274 29.486C24.34 29.618 24.5784 29.684 24.8424 29.684C25.1137 29.684 25.3557 29.618 25.5684 29.486C25.781 29.3467 25.946 29.1634 26.0634 28.936C26.188 28.7014 26.2504 28.441 26.2504 28.155C26.2504 27.869 26.188 27.6124 26.0634 27.385C25.946 27.1577 25.781 26.9744 25.5684 26.835C25.3557 26.6957 25.1137 26.626 24.8424 26.626C24.571 26.626 24.329 26.6957 24.1164 26.835C23.9037 26.9744 23.735 27.1614 23.6104 27.396C23.493 27.6234 23.4344 27.8764 23.4344 28.155ZM29.7462 25.889L29.8452 26.945L29.8012 26.802C29.9552 26.472 30.1936 26.208 30.5162 26.01C30.8389 25.8047 31.2202 25.702 31.6602 25.702C32.0929 25.702 32.4486 25.8304 32.7272 26.087C33.0132 26.3437 33.1599 26.6774 33.1672 27.088V30.498H32.0342V27.484C32.0269 27.2494 31.9572 27.0587 31.8252 26.912C31.6932 26.758 31.4879 26.6774 31.2092 26.67C30.9599 26.67 30.7326 26.747 30.5272 26.901C30.3219 27.0477 30.1606 27.2494 30.0432 27.506C29.9259 27.7627 29.8672 28.0597 29.8672 28.397V30.498H28.7342V25.889H29.7462Z" fill="#918A89"/>
<path d="M17.2203 18.6876C17.2704 18.8802 17.3393 19.0686 17.4271 19.2526C17.5149 19.4373 17.6136 19.6057 17.7233 19.7576H10.6611C10.188 19.7576 9.79303 19.5928 9.47623 19.2633C9.15874 18.933 9 18.5218 9 18.0296V2.22606C9 1.73387 9.15874 1.323 9.47623 0.993446C9.79303 0.66318 10.188 0.498047 10.6611 0.498047H21.7389C22.212 0.498047 22.607 0.66318 22.9238 0.993446C23.2413 1.323 23.4 1.73387 23.4 2.22606V9.84429C23.2491 9.82218 23.0777 9.81112 22.8857 9.81112C22.6937 9.81112 22.5223 9.82182 22.3714 9.84322V2.22713C22.3714 2.06307 22.3056 1.9122 22.1739 1.77453C22.0416 1.63686 21.8966 1.56802 21.7389 1.56802H16.7143V8.19332L14.6571 6.91791L12.6 8.19332V1.56802H10.6611C10.5034 1.56802 10.3584 1.6365 10.2261 1.77346C10.0944 1.91113 10.0286 2.062 10.0286 2.22606V18.0296C10.0286 18.1937 10.0944 18.3445 10.2261 18.4822C10.3584 18.6192 10.5034 18.6876 10.6611 18.6876H17.2203ZM22.8857 20.498C21.7399 20.498 20.7675 20.0829 19.9687 19.2526C19.1698 18.4223 18.7707 17.4108 18.7714 16.2181C18.7714 15.0269 19.1705 14.0158 19.9687 13.1848C20.7669 12.3537 21.7392 11.9382 22.8857 11.9382C24.0315 11.9382 25.0039 12.3537 25.8027 13.1848C26.6016 14.0158 27.0007 15.0269 27 16.2181C27 17.4101 26.6009 18.4216 25.8027 19.2526C25.0039 20.0829 24.0315 20.498 22.8857 20.498ZM21.996 18.235L24.804 16.1775L21.996 14.1199V18.235ZM17.2203 1.56802H10.0286H22.3714H16.7143H17.2203Z" fill="#918A89"/>
</svg>
